@ File generated by m4a2s Song-Module
	.include "MPlayDef.s"

	.equ	seq_000_grp, voicegroup001
	.equ	seq_000_pri, 0
	.equ	seq_000_rev, 0
	.equ	seq_000_mvl, 127
	.equ	seq_000_key, 0

	.section .rodata
	.global	seq_000
	.align	2

@*********************** Track 01 ***********************@

seq_000_0:
	.byte	KEYSH , seq_000_key+0
	.byte	TEMPO , 96/2
	.byte		VOICE , 2
	.byte		MOD   , 0
	.byte		PAN   , c_v+4
	.byte		VOL   , 23*seq_000_mvl/mxv
	.byte		BEND  , c_v+0
	.byte	W12
	.byte	W48
	.byte	TEMPO , 92/2
	.byte	W48
	.byte	TEMPO , 96/2
	.byte	W48
	.byte	TEMPO , 94/2
	.byte	W24
	.byte		PAN   , c_v-27
	.byte		VOL   , 35*seq_000_mvl/mxv
	.byte	W01
	.byte		N11   , En3 , v124
	.byte	W12
	.byte		        An3 
	.byte	W11
	.byte		PAN   , c_v-28
	.byte	W01
	.byte		N08   , Bn3 
	.byte	W12
	.byte		N23   , Cs4 
	.byte	W24
	.byte		N11   , Bn3 
	.byte	W12
	.byte		N23   , Cs4 
	.byte	W24
	.byte		        Dn4 
	.byte	W23
	.byte	W01
	.byte		N44   , En4 
	.byte	W48
	.byte		N11   , En4 , v040
	.byte	W36
	.byte		        Cs4 , v124
	.byte	W11
	.byte	W01
	.byte		N11   , Dn4 , v124
	.byte	W12
	.byte		N44   , En4 
	.byte	W48
	.byte		N11   , En4 , v040
	.byte	W12
	.byte		        En4 , v124
	.byte	W12
	.byte		        Fs4 
	.byte	W11
	.byte	W01
	.byte		        Cs4 
	.byte	W12
	.byte		N23   , En4 
	.byte	W24
	.byte		        Dn4 
	.byte	W24
	.byte		        Cs4 
	.byte	W24
	.byte		        En4 
	.byte	W11
	.byte	W13
	.byte		N32   , Dn4 
	.byte	W36
	.byte		        En4 
	.byte	W36
	.byte		N23   , Dn4 
	.byte	W11
	.byte	W13
	.byte		N32   , Cs4 
	.byte	W32
	.byte		N03   , Cs4 , v040
	.byte	W04
	.byte		N56   , An4 , v124
	.byte	W44
	.byte	W03
	.byte	W13
	.byte		N32   , Bn3 
	.byte	W32
	.byte		N03   , Bn3 , v040
	.byte	W04
	.byte		N32   , An4 , v124
	.byte	W36
	.byte		N23   , Bn3 
	.byte	W11
	.byte	W13
	.byte		N11   , An3 
	.byte	W12
	.byte		        Gs3 
	.byte	W12
	.byte		        Fs3 
	.byte	W12
	.byte		N23   , Gs3 
	.byte	W44
	.byte	W03
	.byte	W96
	.byte	W96
	.byte	W96
	.byte	W96
	.byte	W96
	.byte	W96
	.byte	W96
	.byte	W96
	.byte		VOL   , 56*seq_000_mvl/mxv
	.byte		BEND  , c_v+1
	.byte	W03
	.byte		VOICE , 48
	.byte		PAN   , c_v+32
	.byte		N56   , An3 , v112
	.byte	W24
	.byte		VOL   , 45*seq_000_mvl/mxv
	.byte	W09
	.byte		        42*seq_000_mvl/mxv
	.byte	W09
	.byte		        39*seq_000_mvl/mxv
	.byte	W06
	.byte		        34*seq_000_mvl/mxv
	.byte	W12
	.byte		        56*seq_000_mvl/mxv
	.byte		N05   , Bn3 
	.byte	W06
	.byte		        Bn3 , v040
	.byte	W06
	.byte		        Gn3 , v112
	.byte	W06
	.byte		        Fn3 
	.byte	W06
	.byte		        Fn3 , v040
	.byte	W06
	.byte		N76   , Gn3 , v112
	.byte	W03
	.byte	W36
	.byte		VOL   , 52*seq_000_mvl/mxv
	.byte	W09
	.byte		        42*seq_000_mvl/mxv
	.byte	W06
	.byte		        39*seq_000_mvl/mxv
	.byte	W06
	.byte		        34*seq_000_mvl/mxv
	.byte	W09
	.byte		        28*seq_000_mvl/mxv
	.byte	W09
	.byte		N05   , Gn3 , v040
	.byte	W06
	.byte		VOL   , 56*seq_000_mvl/mxv
	.byte		N11   , Gn2 , v112
	.byte	W12
	.byte		N05   , Cn3 
	.byte	W03
	.byte	W03
	.byte		N52   , Fn3 
	.byte	W24
	.byte		VOL   , 52*seq_000_mvl/mxv
	.byte	W09
	.byte		        46*seq_000_mvl/mxv
	.byte	W06
	.byte		        41*seq_000_mvl/mxv
	.byte	W06
	.byte		        33*seq_000_mvl/mxv
	.byte	W09
	.byte		        27*seq_000_mvl/mxv
	.byte	W06
	.byte		        56*seq_000_mvl/mxv
	.byte		N05   , Gn3 
	.byte	W06
	.byte		        An3 
	.byte	W06
	.byte		        Gn3 
	.byte	W06
	.byte		        Fn3 
	.byte	W06
	.byte		        Fn3 , v040
	.byte	W06
	.byte		        Dn3 , v112
	.byte	W03
	.byte	W03
	.byte		        En3 
	.byte	W06
	.byte		N11   , Fn3 
	.byte	W12
	.byte		N05   , Fs3 
	.byte	W06
	.byte		N11   , Gn3 
	.byte	W12
	.byte		N32   , As3 
	.byte	W21
	.byte		VOL   , 52*seq_000_mvl/mxv
	.byte	W09
	.byte		        46*seq_000_mvl/mxv
	.byte	W06
	.byte		        41*seq_000_mvl/mxv
	.byte	W06
	.byte		        56*seq_000_mvl/mxv
	.byte		N11   , Gn3 
	.byte	W12
	.byte		N05   , Gs3 
	.byte	W03
	.byte	W03
	.byte		N56   , An3 
	.byte	W60
	.byte		N05   , Dn4 
	.byte	W06
	.byte		        En4 
	.byte	W06
	.byte		        Dn4 
	.byte	W06
	.byte		        Cn4 
	.byte	W06
	.byte		        Bn3 
	.byte	W06
	.byte		        Dn4 
	.byte	W03
	.byte	W03
	.byte		N68   , Cn4 
	.byte	W32
	.byte	W01
	.byte		VOL   , 52*seq_000_mvl/mxv
	.byte	W09
	.byte		        46*seq_000_mvl/mxv
	.byte	W06
	.byte		        42*seq_000_mvl/mxv
	.byte	W06
	.byte		        38*seq_000_mvl/mxv
	.byte	W09
	.byte		        31*seq_000_mvl/mxv
	.byte	W09
	.byte		        56*seq_000_mvl/mxv
	.byte		N05
	.byte	W06
	.byte		        Bn3 
	.byte	W06
	.byte		        An3 
	.byte	W06
	.byte		        Bn3 
	.byte	W03
	.byte	W03
	.byte		N68   , Cn4 
	.byte	W42
	.byte		VOL   , 52*seq_000_mvl/mxv
	.byte	W06
	.byte		        46*seq_000_mvl/mxv
	.byte	W09
	.byte		        40*seq_000_mvl/mxv
	.byte	W06
	.byte		        31*seq_000_mvl/mxv
	.byte	W09
	.byte		        56*seq_000_mvl/mxv
	.byte		N05
	.byte	W06
	.byte		        Bn3 
	.byte	W06
	.byte		        An3 
	.byte	W06
	.byte		        Bn3 
	.byte	W03
	.byte	W03
	.byte		N40   , Cn4 
	.byte	W42
	.byte		N02   , Gn3 
	.byte	W03
	.byte		        Gn3 , v040
	.byte	W03
	.byte		N28   , Gn3 , v112
	.byte	W30
	.byte		N05   , Gn3 , v040
	.byte	W06
	.byte		        Gn3 , v112
	.byte	W06
	.byte		        Bn3 
	.byte	W03
	.byte	W03
	.byte		N32   , Cn4 
	.byte	W36
	.byte		N05   , Bn3 
	.byte	W06
	.byte		        Cn4 
	.byte	W06
	.byte		N32   , Dn4 
	.byte	W36
	.byte		N05   , Bn3 
	.byte	W06
	.byte		        Gn3 
	.byte	W03
	.byte	W03
	.byte		        Bn3 
	.byte	W06
	.byte		        Bn3 , v040
	.byte	W06
	.byte		TIE   , An3 , v112
	.byte	W80
	.byte	W01
	.byte	W06
	.byte		VOL   , 52*seq_000_mvl/mxv
	.byte	W12
	.byte		        44*seq_000_mvl/mxv
	.byte	W06
	.byte		        39*seq_000_mvl/mxv
	.byte	W12
	.byte		        31*seq_000_mvl/mxv
	.byte	W09
	.byte		        28*seq_000_mvl/mxv
	.byte	W09
	.byte		        23*seq_000_mvl/mxv
	.byte	W12
	.byte		        19*seq_000_mvl/mxv
	.byte	W15
	.byte		        15*seq_000_mvl/mxv
	.byte	W09
	.byte		        10*seq_000_mvl/mxv
	.byte	W06
	.byte	W02
	.byte		EOT
	.byte	W92
	.byte	W02
	.byte	W03
	.byte		VOICE , 2
	.byte	W60
	.byte		VOL   , 34*seq_000_mvl/mxv
	.byte	W09
	.byte		PAN   , c_v-29
	.byte		N11   , En3 , v124
	.byte	W12
	.byte		        An3 
	.byte	W12
	.byte		        Bn3 
	.byte	W12
	.byte		N23   , Cs4 
	.byte	W24
	.byte		N11   , Bn3 
	.byte	W12
	.byte		N23   , Cs4 
	.byte	W24
	.byte		N17   , Dn4 
	.byte	W18
	.byte		N05   , Dn4 , v040
	.byte	W06
	.byte		N44   , En4 , v124
	.byte	W48
	.byte		N11   , En4 , v040
	.byte	W36
	.byte		        Cs4 , v124
	.byte	W12
	.byte	GOTO
	 .word	seq_000_0 + 0x40
	.byte	FINE

@*********************** Track 02 ***********************@

seq_000_1:
	.byte	KEYSH , seq_000_key+0
	.byte		VOICE , 2
	.byte		VOL   , 84*seq_000_mvl/mxv
	.byte		PAN   , c_v-32
	.byte		MOD   , 0
	.byte		BEND  , c_v+0
	.byte	W03
	.byte		VOL   , 92*seq_000_mvl/mxv
	.byte	W09
	.byte	W12
	.byte		N23   , En2 , v108
	.byte	W24
	.byte		        Bn2 
	.byte	W24
	.byte		        An2 
	.byte	W24
	.byte		N11   , An2 , v040
	.byte	W12
	.byte	PEND
	.byte	PATT
	 .word	seq_000_1 + 0x10
	.byte	W12
	.byte		N23   , En2 , v096
	.byte	W24
	.byte		        Bn2 
	.byte	W24
	.byte		        An2 
	.byte	W24
	.byte		N11   , An2 , v040
	.byte	W12
	.byte	PEND
	.byte	W12
	.byte		N23   , Gs2 , v096
	.byte	W24
	.byte		        Ds3 
	.byte	W24
	.byte		        Cs3 
	.byte	W24
	.byte		N11   , Gs2 
	.byte	W12
	.byte	PEND
	.byte	W12
	.byte		N23   , Dn2 , v096
	.byte	W24
	.byte		        As2 
	.byte	W24
	.byte		        Bn2 
	.byte	W24
	.byte		        Cs3 
	.byte	W12
	.byte	PEND
	.byte	W12
	.byte		N23   , Dn2 , v096
	.byte	W24
	.byte		        Bn2 
	.byte	W24
	.byte		N23
	.byte	W24
	.byte		        Dn2 
	.byte	W12
	.byte	PEND
	.byte	PATT
	 .word	seq_000_1 + 0x4A
	.byte	W12
	.byte		N23   , En2 , v096
	.byte	W24
	.byte		        Bn2 
	.byte	W24
	.byte		N23
	.byte	W24
	.byte		        En2 
	.byte	W12
	.byte	PEND
	.byte	W12
	.byte		        Bn1 
	.byte	W24
	.byte		        Bn2 
	.byte	W24
	.byte		N23
	.byte	W24
	.byte		        An2 
	.byte	W12
	.byte	W12
	.byte		        Bn1 
	.byte	W24
	.byte		        En2 
	.byte	W24
	.byte		        Fs2 
	.byte	W24
	.byte		        Gs2 
	.byte	W12
	.byte	W12
	.byte		        En2 
	.byte	W24
	.byte		        Bn2 
	.byte	W24
	.byte		        An2 
	.byte	W36
	.byte	PATT
	 .word	seq_000_1 + 0x31
	.byte	PATT
	 .word	seq_000_1 + 0x3E
	.byte	W12
	.byte		N23   , Dn2 , v096
	.byte	W24
	.byte		        An2 
	.byte	W24
	.byte		        Cs3 
	.byte	W24
	.byte		        Dn3 
	.byte	W12
	.byte	W12
	.byte		        Dn2 
	.byte	W24
	.byte		        Bn2 
	.byte	W28
	.byte		N23
	.byte	W32
	.byte	PATT
	 .word	seq_000_1 + 0x5B
	.byte	W12
	.byte		N23   , Bn1 , v096
	.byte	W24
	.byte		        Fn2 
	.byte	W24
	.byte		        Fs2 
	.byte	W24
	.byte		        An2 
	.byte	W12
	.byte	W12
	.byte		        Bn1 
	.byte	W24
	.byte		        En2 
	.byte	W24
	.byte		N11   , Fs2 
	.byte	W12
	.byte		N23   , Gn2 
	.byte	W24
	.byte		VOL   , 86*seq_000_mvl/mxv
	.byte		N12   , Fn2 , v080
	.byte	W12
	.byte		        Cn3 
	.byte	W12
	.byte		        Gn3 
	.byte	W12
	.byte		        Cn3 
	.byte	W12
	.byte		        Dn4 
	.byte	W12
	.byte		        Gn3 
	.byte	W12
	.byte		        Bn3 
	.byte	W12
	.byte		        En3 
	.byte	W12
	.byte		N06   , As2 , v088
	.byte	W06
	.byte		        Bn2 
	.byte	W06
	.byte		N05   , Bn2 , v040
	.byte	W06
	.byte		N24   , Bn2 , v088
	.byte	W24
	.byte		N05   , Dn3 
	.byte	W06
	.byte		        Dn3 , v040
	.byte	W06
	.byte		        Dn3 , v088
	.byte	W06
	.byte		        Cn3 
	.byte	W06
	.byte		        Cn3 , v040
	.byte	W06
	.byte		        Dn3 , v088
	.byte	W06
	.byte		N11   , En3 
	.byte	W12
	.byte		N05   , En3 , v040
	.byte	W06
	.byte		N12   , Dn2 , v088
	.byte	W12
	.byte		        An2 
	.byte	W12
	.byte		        Fn3 
	.byte	W12
	.byte		        An2 
	.byte	W12
	.byte		N07   , Bn3 
	.byte	W08
	.byte		        Fn3 
	.byte	W08
	.byte		N07
	.byte	W08
	.byte		N07
	.byte	W08
	.byte		        Bn2 
	.byte	W08
	.byte		N07
	.byte	W08
	.byte		N05   , Cs4 
	.byte	W06
	.byte		        Dn4 
	.byte	W06
	.byte		        Dn4 , v040
	.byte	W06
	.byte		        As3 , v088
	.byte	W06
	.byte		        Bn3 
	.byte	W06
	.byte		        Bn3 , v040
	.byte	W06
	.byte		        Fs3 , v088
	.byte	W06
	.byte		        Gn3 
	.byte	W06
	.byte		        Cs4 
	.byte	W06
	.byte		N05
	.byte	W06
	.byte		        As3 
	.byte	W06
	.byte		N05
	.byte	W06
	.byte		N07   , Gn4 
	.byte	W08
	.byte		        Cs4 
	.byte	W08
	.byte		N07
	.byte	W08
	.byte		N05   , An3 
	.byte	W06
	.byte		N05
	.byte	W06
	.byte		        An3 , v040
	.byte	W06
	.byte		N17   , En3 , v088
	.byte	W18
	.byte		N05   , Gs3 
	.byte	W06
	.byte		        An3 
	.byte	W06
	.byte		N11   , Gn3 
	.byte	W12
	.byte		        Dn4 
	.byte	W12
	.byte		        Bn3 
	.byte	W12
	.byte		        Gs3 
	.byte	W12
	.byte		N17   , Cn4 
	.byte	W18
	.byte		N17
	.byte	W18
	.byte		N02
	.byte	W03
	.byte		        Cn4 , v040
	.byte	W03
	.byte		N17   , An3 , v088
	.byte	W18
	.byte		N11   , Fs3 
	.byte	W12
	.byte		N05
	.byte	W06
	.byte		N17   , An3 
	.byte	W18
	.byte		        Cn4 
	.byte	W18
	.byte		N17
	.byte	W18
	.byte		N05   , Bn3 
	.byte	W06
	.byte		N02   , Cn4 
	.byte	W03
	.byte		        Cn4 , v040
	.byte	W03
	.byte		N17   , Cn4 , v088
	.byte	W18
	.byte		        An3 
	.byte	W18
	.byte		N11   , An3 , v040
	.byte	W12
	.byte		N17   , Bn3 , v088
	.byte	W18
	.byte		N17
	.byte	W18
	.byte		N05   , As3 
	.byte	W06
	.byte		N02   , Bn3 
	.byte	W03
	.byte		        Bn3 , v040
	.byte	W03
	.byte		N11   , Bn3 , v088
	.byte	W12
	.byte		N05
	.byte	W06
	.byte		        Bn3 , v040
	.byte	W06
	.byte		        As3 , v088
	.byte	W06
	.byte		N17   , Bn3 
	.byte	W18
	.byte		N02   , Cn4 
	.byte	W03
	.byte		        Cn4 , v040
	.byte	W03
	.byte		        Cn4 , v088
	.byte	W03
	.byte		N08   , Cn4 , v040
	.byte	W09
	.byte		N17   , An3 , v088
	.byte	W18
	.byte		N05   , Bn3 
	.byte	W06
	.byte		N02   , Cn4 
	.byte	W03
	.byte		        Cn4 , v040
	.byte	W03
	.byte		N44   , Dn4 , v088
	.byte	W48
	.byte	PATT
	 .word	seq_000_1 + 0x23
	.byte	PATT
	 .word	seq_000_1 + 0x23
	.byte	PATT
	 .word	seq_000_1 + 0x10
	.byte	PATT
	 .word	seq_000_1 + 0x10
	.byte	PATT
	 .word	seq_000_1 + 0x23
	.byte	PATT
	 .word	seq_000_1 + 0x31
	.byte	GOTO
	 .word	seq_000_1 + 0x3E
	.byte	W11
	.byte	FINE

@*********************** Track 03 ***********************@

seq_000_2:
	.byte	KEYSH , seq_000_key+0
	.byte		VOICE , 2
	.byte		VOL   , 82*seq_000_mvl/mxv
	.byte		PAN   , c_v-16
	.byte		MOD   , 0
	.byte		BEND  , c_v+0
	.byte	W12
	.byte	W24
	.byte		N23   , An2 , v108
	.byte	W24
	.byte		        Cs3 
	.byte	W24
	.byte		N11   , Bn2 
	.byte	W12
	.byte		N23   , En2 
	.byte	W12
	.byte	PEND
	.byte	W12
	.byte		N11   , En2 , v040
	.byte	W12
	.byte		N23   , An2 , v108
	.byte	W24
	.byte		        Cs3 
	.byte	W24
	.byte		N11   , Bn2 
	.byte	W12
	.byte		N23   , En2 
	.byte	W12
	.byte	W12
	.byte		N11   , En2 , v040
	.byte	W12
	.byte		N23   , An2 , v096
	.byte	W24
	.byte		        Cs3 
	.byte	W24
	.byte		N11   , Bn2 
	.byte	W12
	.byte		N23   , En2 
	.byte	W12
	.byte	W12
	.byte		N11   , En2 , v040
	.byte	W12
	.byte		N23   , Cs3 , v096
	.byte	W24
	.byte		        En3 
	.byte	W24
	.byte		        Ds3 
	.byte	W24
	.byte	PEND
	.byte		N11   , Ds3 , v040
	.byte	W24
	.byte		N23   , Bn2 , v096
	.byte	W24
	.byte		        Cs3 
	.byte	W24
	.byte		        Dn3 
	.byte	W24
	.byte	PEND
	.byte		N11   , Dn3 , v040
	.byte	W24
	.byte		N23   , An2 , v096
	.byte	W24
	.byte		        Cs3 
	.byte	W24
	.byte		        An2 
	.byte	W24
	.byte		N11   , An2 , v040
	.byte	W24
	.byte		N23   , An2 , v096
	.byte	W24
	.byte		        Cn3 
	.byte	W24
	.byte		        An2 
	.byte	W24
	.byte		N11   , An2 , v040
	.byte	W24
	.byte		N23   , An2 , v096
	.byte	W24
	.byte		        Cs3 
	.byte	W24
	.byte		        An2 
	.byte	W24
	.byte		N11   , An2 , v040
	.byte	W24
	.byte		N23   , Fs2 , v096
	.byte	W24
	.byte		        Ds3 
	.byte	W24
	.byte		        Fs2 
	.byte	W24
	.byte		N11   , Fs2 , v040
	.byte	W24
	.byte		N23   , Fs2 , v096
	.byte	W24
	.byte		        Gs2 
	.byte	W24
	.byte		        An2 
	.byte	W24
	.byte		N11   , An2 , v040
	.byte	W24
	.byte		N23   , An2 , v096
	.byte	W24
	.byte		        Cs3 
	.byte	W24
	.byte		N11   , Bn2 
	.byte	W12
	.byte		N23   , En2 
	.byte	W12
	.byte	PATT
	 .word	seq_000_2 + 0x3D
	.byte	PATT
	 .word	seq_000_2 + 0x4B
	.byte		N11   , Dn3 , v040
	.byte	W24
	.byte		N23   , Bn2 , v096
	.byte	W24
	.byte		        Dn3 
	.byte	W24
	.byte		        En3 
	.byte	W24
	.byte		N11   , En3 , v040
	.byte	W24
	.byte		N23   , An2 , v096
	.byte	W24
	.byte		        Cn3 
	.byte	W32
	.byte		        An2 
	.byte	W16
	.byte	W08
	.byte		N11   , An2 , v040
	.byte	W16
	.byte		N23   , An2 , v096
	.byte	W24
	.byte		        Cs3 
	.byte	W24
	.byte		        An2 
	.byte	W24
	.byte		N11   , An2 , v040
	.byte	W24
	.byte		N23   , Fs2 , v096
	.byte	W24
	.byte		        Gs2 
	.byte	W24
	.byte		        Bn2 
	.byte	W24
	.byte		N11   , Bn2 , v040
	.byte	W24
	.byte		N23   , Fs2 , v096
	.byte	W24
	.byte		        Gs2 
	.byte	W24
	.byte		        Bn2 
	.byte	W24
	.byte		VOL   , 84*seq_000_mvl/mxv
	.byte	W06
	.byte		N12   , An2 , v080
	.byte	W12
	.byte		        En3 
	.byte	W12
	.byte		N12
	.byte	W12
	.byte		        An2 
	.byte	W12
	.byte		        Bn3 
	.byte	W12
	.byte		        Dn3 
	.byte	W12
	.byte		        Gn3 
	.byte	W12
	.byte		N06   , Bn2 , v088
	.byte	W06
	.byte		        Fs3 
	.byte	W06
	.byte		        Gn3 
	.byte	W06
	.byte		N05   , Gn3 , v040
	.byte	W06
	.byte		N24   , Dn3 , v088
	.byte	W24
	.byte		N05   , Fn3 
	.byte	W06
	.byte		        Fn3 , v040
	.byte	W06
	.byte		        Fn3 , v088
	.byte	W06
	.byte		        En3 
	.byte	W06
	.byte		        En3 , v040
	.byte	W06
	.byte		        Fn3 , v088
	.byte	W06
	.byte		N11   , Gn3 
	.byte	W12
	.byte		N05   , Gn3 , v040
	.byte	W06
	.byte	W06
	.byte		N12   , Fn2 , v088
	.byte	W12
	.byte		        Cn3 
	.byte	W12
	.byte		N12
	.byte	W12
	.byte		        Fn2 
	.byte	W10
	.byte		N07   , Gn3 
	.byte	W08
	.byte		N07
	.byte	W08
	.byte		        Dn3 
	.byte	W08
	.byte		N07
	.byte	W08
	.byte		N07
	.byte	W08
	.byte		N03   , Gn2 
	.byte	W04
	.byte		N05   , As3 
	.byte	W06
	.byte		        Bn3 
	.byte	W06
	.byte		        Bn3 , v040
	.byte	W06
	.byte		        Fs3 , v088
	.byte	W06
	.byte		        Gn3 
	.byte	W06
	.byte		        Gn3 , v040
	.byte	W06
	.byte		        Ds3 , v088
	.byte	W06
	.byte		        En3 
	.byte	W06
	.byte		        As3 
	.byte	W06
	.byte		N05
	.byte	W06
	.byte		        Gn3 
	.byte	W06
	.byte		N05
	.byte	W10
	.byte		N07   , En4 
	.byte	W08
	.byte		N07
	.byte	W08
	.byte		N03   , As3 
	.byte	W04
	.byte		N05   , En3 
	.byte	W06
	.byte		N05
	.byte	W06
	.byte		        En3 , v040
	.byte	W06
	.byte		N17   , Cn3 , v088
	.byte	W18
	.byte		N05   , Ds3 
	.byte	W06
	.byte		        En3 
	.byte	W06
	.byte		        En3 , v040
	.byte	W06
	.byte		N11   , Bn3 , v088
	.byte	W12
	.byte		        Fn4 
	.byte	W12
	.byte		        Dn4 
	.byte	W12
	.byte		N05   , Bn3 
	.byte	W06
	.byte		N17   , En4 
	.byte	W18
	.byte		        Dn4 
	.byte	W18
	.byte		N02
	.byte	W03
	.byte		        Dn4 , v040
	.byte	W03
	.byte		N17   , Cn4 , v088
	.byte	W18
	.byte		N11   , An3 
	.byte	W12
	.byte		N05
	.byte	W06
	.byte		N17   , Bn3 
	.byte	W18
	.byte		        Gn4 
	.byte	W18
	.byte		        Fn4 
	.byte	W18
	.byte		N05   , En4 
	.byte	W06
	.byte		N02   , Fn4 
	.byte	W03
	.byte		        Fn4 , v040
	.byte	W03
	.byte		N17   , En4 , v088
	.byte	W18
	.byte		        Dn4 
	.byte	W18
	.byte		N11   , Dn4 , v040
	.byte	W12
	.byte		N17   , Gn4 , v088
	.byte	W18
	.byte		        Fn4 
	.byte	W18
	.byte		N05   , En4 
	.byte	W06
	.byte		N02   , Fn4 
	.byte	W03
	.byte		        Fn4 , v040
	.byte	W03
	.byte		N11   , En4 , v088
	.byte	W12
	.byte		N05   , Dn4 
	.byte	W06
	.byte		        Dn4 , v040
	.byte	W06
	.byte		        Cs4 , v088
	.byte	W06
	.byte		N17   , Dn4 
	.byte	W18
	.byte		N05   , Fn4 
	.byte	W06
	.byte		N02
	.byte	W03
	.byte		N11   , Fn4 , v040
	.byte	W09
	.byte		N17   , Cn4 , v088
	.byte	W18
	.byte		N05   , Fn4 
	.byte	W06
	.byte		N02   , Fs4 
	.byte	W03
	.byte		        Fs4 , v040
	.byte	W03
	.byte		N44   , Gn4 , v088
	.byte	W44
	.byte	W01
	.byte		N11   , Gn4 , v040
	.byte	W03
	.byte	W24
	.byte		N23   , An2 , v096
	.byte	W24
	.byte		        Cs3 
	.byte	W24
	.byte		N11   , Bn2 
	.byte	W12
	.byte		N23   , En2 
	.byte	W12
	.byte	PEND
	.byte	PATT
	 .word	seq_000_2 + 0x1EE
	.byte	PATT
	 .word	seq_000_2 + 0xD
	.byte	PATT
	 .word	seq_000_2 + 0xD
	.byte	PATT
	 .word	seq_000_2 + 0x1EE
	.byte	W24
	.byte		N23   , Cs3 , v096
	.byte	W24
	.byte		        En3 
	.byte	W24
	.byte		        Ds3 
	.byte	W24
	.byte	GOTO
	 .word	seq_000_2 + 0x4B
	.byte	W23
	.byte	FINE

@*********************** Track 04 ***********************@

seq_000_3:
	.byte	KEYSH , seq_000_key+0
	.byte		VOICE , 3
	.byte		PAN   , c_v-13
	.byte		VOL   , 92*seq_000_mvl/mxv
	.byte		MOD   , 0
	.byte		BEND  , c_v+0
	.byte		N11   , En1 , v112
	.byte	W12
	.byte		VOICE , 2
	.byte		N80   , An1 , v127
	.byte	W84
	.byte		N11   , An1 , v040
	.byte	W12
	.byte		N80   , An1 , v127
	.byte	W84
	.byte		N11   , An1 , v040
	.byte	W12
	.byte	PEND
	.byte	PATT
	 .word	seq_000_3 + 0x1A
	.byte		N80   , Cs2 , v127
	.byte	W84
	.byte		N11   , Cs2 , v040
	.byte	W12
	.byte	PEND
	.byte		VOICE , 3
	.byte		N80   , Gn1 , v112
	.byte	W84
	.byte		N11   , Gn1 , v040
	.byte	W12
	.byte		N80   , Fs1 , v112
	.byte	W84
	.byte		N11   , Fs1 , v040
	.byte	W12
	.byte	PEND
	.byte		N80   , Fn1 , v112
	.byte	W84
	.byte		N11   , Fn1 , v040
	.byte	W12
	.byte	PEND
	.byte		N80   , En1 , v112
	.byte	W84
	.byte		N11   , En1 , v040
	.byte	W12
	.byte	PEND
	.byte		N80   , Ds1 , v112
	.byte	W84
	.byte		N11   , Ds1 , v040
	.byte	W12
	.byte	PEND
	.byte	PATT
	 .word	seq_000_3 + 0x4D
	.byte		VOICE , 2
	.byte		N80   , An1 , v112
	.byte	W84
	.byte		N11   , An1 , v040
	.byte	W12
	.byte		N80   , Cs2 , v112
	.byte	W84
	.byte		N11   , Cs2 , v040
	.byte	W12
	.byte		N80   , Gn1 , v112
	.byte	W84
	.byte		N11   , Gn1 , v040
	.byte	W12
	.byte	PATT
	 .word	seq_000_3 + 0x3B
	.byte	PATT
	 .word	seq_000_3 + 0x44
	.byte	PATT
	 .word	seq_000_3 + 0x4D
	.byte	PATT
	 .word	seq_000_3 + 0x56
	.byte		N68   , En1 , v112
	.byte	W72
	.byte		N23   , Gn1 
	.byte	W24
	.byte		VOICE , 3
	.byte		PAN   , c_v+0
	.byte		VOL   , 84*seq_000_mvl/mxv
	.byte		N05   , Fn1 , v127
	.byte	W06
	.byte		N05
	.byte	W06
	.byte		N11   , Fn1 , v040
	.byte	W24
	.byte		N05   , Fn1 , v127
	.byte	W06
	.byte		N05
	.byte	W06
	.byte		N11   , Fn1 , v040
	.byte	W12
	.byte		        Fn1 , v127
	.byte	W12
	.byte		N05   , Fn1 , v040
	.byte	W06
	.byte		VOICE , 2
	.byte		N05   , Fn2 , v112
	.byte	W06
	.byte		VOICE , 3
	.byte		N11   , Fn1 
	.byte	W12
	.byte		N05   , Fs1 , v127
	.byte	W06
	.byte		        Gn1 
	.byte	W06
	.byte		        Gn1 , v040
	.byte	W06
	.byte		N23   , En1 , v127
	.byte	W24
	.byte		N05   , Gn1 
	.byte	W06
	.byte		        Gn1 , v040
	.byte	W06
	.byte		        Gn1 , v127
	.byte	W06
	.byte		        Cn1 
	.byte	W06
	.byte		        Cn1 , v040
	.byte	W06
	.byte		        Gn1 , v127
	.byte	W06
	.byte		        Gn1 , v040
	.byte	W06
	.byte		N11   , Cn1 , v127
	.byte	W12
	.byte		N05   , Dn1 
	.byte	W06
	.byte		N05
	.byte	W06
	.byte		        Dn1 , v040
	.byte	W06
	.byte		N11   , An0 , v127
	.byte	W12
	.byte		N05   , An0 , v040
	.byte	W06
	.byte		        Cs1 , v127
	.byte	W06
	.byte		        Dn1 
	.byte	W06
	.byte		N11   , Dn1 , v040
	.byte	W12
	.byte		        Gn1 , v127
	.byte	W12
	.byte		N05   , Gn1 , v040
	.byte	W06
	.byte		        Gn1 , v127
	.byte	W06
	.byte		N11   , Gn0 
	.byte	W12
	.byte		N05   , Cn1 
	.byte	W06
	.byte		N05
	.byte	W06
	.byte		N11   , Cn1 , v040
	.byte	W24
	.byte		N05   , Cn1 , v127
	.byte	W06
	.byte		N05
	.byte	W06
	.byte		        Cs1 
	.byte	W06
	.byte		N05
	.byte	W06
	.byte		        Cs1 , v040
	.byte	W06
	.byte		N11   , Gn0 , v127
	.byte	W18
	.byte		        En1 
	.byte	W12
	.byte		N05   , Fn1 
	.byte	W06
	.byte		N05
	.byte	W06
	.byte		        Fn1 , v040
	.byte	W06
	.byte		N11   , Cn1 , v127
	.byte	W12
	.byte		N05   , Cn1 , v040
	.byte	W06
	.byte		        Fn1 , v127
	.byte	W06
	.byte		N05
	.byte	W06
	.byte		N05
	.byte	W06
	.byte		        Fn1 , v040
	.byte	W06
	.byte		N11   , Dn1 , v127
	.byte	W12
	.byte		VOICE , 2
	.byte		N05   , Gs1 
	.byte	W06
	.byte		        Bn1 
	.byte	W06
	.byte		N11   , En1 
	.byte	W12
	.byte		N17   , An1 
	.byte	W18
	.byte		        Cn2 
	.byte	W18
	.byte		VOICE , 3
	.byte		N05   , Gn1 
	.byte	W06
	.byte		N17   , Dn1 
	.byte	W18
	.byte		N05   , Fs1 
	.byte	W06
	.byte		        Fs1 , v040
	.byte	W06
	.byte		        Fs1 , v127
	.byte	W06
	.byte		        Fs1 , v040
	.byte	W06
	.byte		N11   , Dn1 , v127
	.byte	W12
	.byte		N05
	.byte	W06
	.byte		N05
	.byte	W06
	.byte		        Dn1 , v040
	.byte	W06
	.byte		N17   , An0 , v127
	.byte	W18
	.byte		N05   , Cs1 
	.byte	W06
	.byte		        Dn1 
	.byte	W06
	.byte		N11   , Dn1 , v040
	.byte	W48
	.byte		N05   , En1 , v127
	.byte	W06
	.byte		N05
	.byte	W06
	.byte		        En1 , v040
	.byte	W06
	.byte		N17   , Bn0 , v127
	.byte	W18
	.byte		N05   , Ds1 
	.byte	W06
	.byte		        En1 
	.byte	W06
	.byte		N11   , En1 , v040
	.byte	W48
	.byte		N05   , Fn1 , v127
	.byte	W06
	.byte		N05
	.byte	W06
	.byte		        Fn1 , v040
	.byte	W06
	.byte		N17   , Cn1 , v127
	.byte	W18
	.byte		N05   , Fn1 
	.byte	W06
	.byte		        Gn1 
	.byte	W06
	.byte		VOICE , 2
	.byte		N32   , Dn1 , v112
	.byte	W36
	.byte		N11   , Dn1 , v040
	.byte	W12
	.byte		N05   , An1 , v127
	.byte	W06
	.byte		N05
	.byte	W06
	.byte		        An1 , v040
	.byte	W06
	.byte		N17   , En1 , v127
	.byte	W18
	.byte		N05   , An1 
	.byte	W06
	.byte		N05
	.byte	W06
	.byte		N11   , An1 , v040
	.byte	W48
	.byte	PEND
	.byte	PATT
	 .word	seq_000_3 + 0x1B7
	.byte		N80   , An1 , v127
	.byte	W84
	.byte		N11   , An1 , v040
	.byte	W12
	.byte	PATT
	 .word	seq_000_3 + 0x1A
	.byte	PATT
	 .word	seq_000_3 + 0x1A
	.byte	PATT
	 .word	seq_000_3 + 0x28
	.byte	GOTO
	 .word	seq_000_3 + 0x31
	.byte	W11
	.byte	FINE

@*********************** Track 05 ***********************@

seq_000_4:
	.byte	KEYSH , seq_000_key+0
	.byte		VOICE , 2
	.byte		PAN   , c_v+0
	.byte		VOL   , 90*seq_000_mvl/mxv
	.byte		MOD   , 0
	.byte		BEND  , c_v+0
	.byte	W12
	.byte	W96
	.byte	W60
	.byte		N11   , En3 , v124
	.byte	W12
	.byte		        An3 
	.byte	W12
	.byte		        Bn3 
	.byte	W12
	.byte		N23   , Cs4 , v124
	.byte	W24
	.byte		N11   , Bn3 
	.byte	W12
	.byte		N23   , Cs4 
	.byte	W24
	.byte		        Dn4 
	.byte	W24
	.byte		N44   , En4 
	.byte	W12
	.byte	PEND
	.byte	W36
	.byte		N11   , En4 , v040
	.byte	W36
	.byte		        Cs4 , v124
	.byte	W12
	.byte		        Dn4 
	.byte	W12
	.byte	PEND
	.byte		N44   , En4 , v124
	.byte	W48
	.byte		N11   , En4 , v040
	.byte	W12
	.byte		        En4 , v124
	.byte	W12
	.byte		        Fs4 
	.byte	W12
	.byte		        Cs4 
	.byte	W12
	.byte	PEND
	.byte		N23   , En4 
	.byte	W24
	.byte		        Dn4 
	.byte	W24
	.byte		        Cs4 
	.byte	W24
	.byte		        En4 
	.byte	W24
	.byte		N32   , Dn4 
	.byte	W36
	.byte		        En4 
	.byte	W36
	.byte		N23   , Dn4 
	.byte	W24
	.byte		N32   , Cs4 
	.byte	W32
	.byte		N03   , Cs4 , v040
	.byte	W04
	.byte		N56   , An4 , v124
	.byte	W60
	.byte		N32   , Bn3 
	.byte	W32
	.byte		N03   , Bn3 , v040
	.byte	W04
	.byte		N32   , An4 , v124
	.byte	W36
	.byte		N23   , Bn3 
	.byte	W24
	.byte		N11   , An3 
	.byte	W12
	.byte		        Gs3 
	.byte	W12
	.byte		        Fs3 
	.byte	W12
	.byte		N23   , Gs3 
	.byte	W24
	.byte		N11   , En3 
	.byte	W12
	.byte		        En4 
	.byte	W12
	.byte		        Dn4 
	.byte	W12
	.byte	PATT
	 .word	seq_000_4 + 0x17
	.byte	PATT
	 .word	seq_000_4 + 0x27
	.byte	PATT
	 .word	seq_000_4 + 0x32
	.byte		N23   , En4 , v124
	.byte	W24
	.byte		        Dn4 
	.byte	W24
	.byte		N15   , Cs4 
	.byte	W16
	.byte		        En4 
	.byte	W16
	.byte		        Dn4 
	.byte	W16
	.byte		N11
	.byte	W12
	.byte		        An3 
	.byte	W12
	.byte		        Dn4 
	.byte	W12
	.byte		        En4 
	.byte	W12
	.byte		N15   , Fn4 
	.byte	W16
	.byte		        En4 
	.byte	W16
	.byte		        Dn4 
	.byte	W16
	.byte		N23   , Cs4 
	.byte	W24
	.byte		N11   , An3 
	.byte	W12
	.byte		N23   , Gs4 
	.byte	W24
	.byte		N32   , An4 
	.byte	W36
	.byte		        Bn3 
	.byte	W36
	.byte		N11   , Fs3 
	.byte	W12
	.byte		N15   , Gs4 
	.byte	W16
	.byte		        An4 
	.byte	W16
	.byte		        Fs4 
	.byte	W16
	.byte		N32   , An3 
	.byte	W36
	.byte		N05   , Gs3 
	.byte	W06
	.byte		        Fs3 
	.byte	W06
	.byte		N36   , Gs3 
	.byte	W36
	.byte	W03
	.byte		N05   , Gs3 , v040
	.byte	W09
	.byte		PAN   , c_v+38
	.byte		VOL   , 80*seq_000_mvl/mxv
	.byte	W24
	.byte		        80*seq_000_mvl/mxv
	.byte	W48
	.byte		N05   , Bn2 , v084
	.byte	W06
	.byte		        Gn2 , v080
	.byte	W06
	.byte		        Dn2 , v084
	.byte	W06
	.byte		        Bn1 , v088
	.byte	W06
	.byte		        Bn1 , v040
	.byte	W18
	.byte		N23   , Gn2 , v088
	.byte	W24
	.byte		N05   , As2 
	.byte	W06
	.byte		        As2 , v040
	.byte	W06
	.byte		        As2 , v088
	.byte	W06
	.byte		N05
	.byte	W06
	.byte		        As2 , v040
	.byte	W06
	.byte		        As2 , v088
	.byte	W06
	.byte		N11
	.byte	W12
	.byte		N05   , As2 , v040
	.byte	W06
	.byte	W72
	.byte		N03   , Dn2 , v088
	.byte	W04
	.byte		        Fn2 
	.byte	W04
	.byte		        Gn2 
	.byte	W04
	.byte		        Fn2 
	.byte	W04
	.byte		        Gn2 
	.byte	W04
	.byte		        Bn2 
	.byte	W04
	.byte		N05   , Bn2 , v040
	.byte	W96
	.byte		        Cn3 , v088
	.byte	W06
	.byte		N05
	.byte	W06
	.byte		        Cn3 , v040
	.byte	W06
	.byte		N17   , An2 , v088
	.byte	W18
	.byte		N05   , Bn2 
	.byte	W06
	.byte		        Cn3 
	.byte	W06
	.byte		        Cn3 , v040
	.byte	W48
	.byte		N17   , An3 , v088
	.byte	W18
	.byte		        Gn3 
	.byte	W18
	.byte		N02
	.byte	W06
	.byte		N17   , Fs3 
	.byte	W18
	.byte		N11   , Dn3 
	.byte	W12
	.byte		N05
	.byte	W06
	.byte		N17   , Fn3 
	.byte	W18
	.byte		        An3 
	.byte	W18
	.byte		N17
	.byte	W18
	.byte		N05   , Gs3 
	.byte	W06
	.byte		N02   , An3 
	.byte	W03
	.byte		        An3 , v040
	.byte	W03
	.byte		N17   , An3 , v088
	.byte	W18
	.byte		        Fn3 
	.byte	W18
	.byte		N05   , Fn3 , v040
	.byte	W12
	.byte		N17   , Gn3 , v088
	.byte	W18
	.byte		N17
	.byte	W18
	.byte		N05   , Fs3 
	.byte	W06
	.byte		N02   , Gn3 
	.byte	W03
	.byte		        Gn3 , v040
	.byte	W03
	.byte		N11   , Gn3 , v088
	.byte	W12
	.byte		N05
	.byte	W06
	.byte		        Gn3 , v040
	.byte	W06
	.byte		        Fs3 , v088
	.byte	W06
	.byte		N17   , Gn3 
	.byte	W18
	.byte		N05   , An3 
	.byte	W06
	.byte		N02
	.byte	W03
	.byte		N05   , An3 , v040
	.byte	W09
	.byte		N17   , Fn3 , v088
	.byte	W18
	.byte		N05   , Gn3 
	.byte	W06
	.byte		N02   , An3 
	.byte	W03
	.byte		        An3 , v040
	.byte	W03
	.byte		N44   , Bn3 , v088
	.byte	W44
	.byte	W01
	.byte		N05   , Bn3 , v040
	.byte	W03
	.byte	W96
	.byte	W96
	.byte	W96
	.byte		PAN   , c_v+0
	.byte	W48
	.byte		VOL   , 92*seq_000_mvl/mxv
	.byte	W12
	.byte		N11   , En3 , v124
	.byte	W12
	.byte		        An3 
	.byte	W12
	.byte		        Bn3 
	.byte	W12
	.byte		N23   , Cs4 
	.byte	W24
	.byte		N11   , Bn3 
	.byte	W12
	.byte		N23   , Cs4 
	.byte	W24
	.byte		N17   , Dn4 
	.byte	W18
	.byte		N05   , Dn4 , v040
	.byte	W06
	.byte		N44   , En4 , v124
	.byte	W12
	.byte	PATT
	 .word	seq_000_4 + 0x27
	.byte	GOTO
	 .word	seq_000_4 + 0x32
	.byte	W11
	.byte	FINE

@*********************** Track 06 ***********************@

seq_000_5:
	.byte	KEYSH , seq_000_key+0
	.byte		VOICE , 2
	.byte		VOL   , 76*seq_000_mvl/mxv
	.byte		PAN   , c_v+10
	.byte		MOD   , 0
	.byte		BEND  , c_v+0
	.byte	W12
	.byte	W96
	.byte	W90
	.byte		N02   , En3 , v112
	.byte	W03
	.byte		        An3 
	.byte	W03
	.byte	PEND
	.byte		N23   , An3 , v112
	.byte	W24
	.byte		N11   , An3 , v040
	.byte	W54
	.byte		N02   , Gs3 , v112
	.byte	W03
	.byte		        Cs4 
	.byte	W03
	.byte		N44
	.byte	W12
	.byte	PEND
	.byte	W36
	.byte		N11   , Cs4 , v040
	.byte	W54
	.byte		N02   , Gn3 , v112
	.byte	W03
	.byte		        Bn3 
	.byte	W03
	.byte	PEND
	.byte		N44   , Bn3 , v112
	.byte	W48
	.byte		N11   , Bn3 , v040
	.byte	W42
	.byte		N02   , Fs3 , v112
	.byte	W03
	.byte		        An3 
	.byte	W03
	.byte	PEND
	.byte		N23   , Cs4 
	.byte	W24
	.byte		        An3 
	.byte	W24
	.byte		        Fs3 
	.byte	W24
	.byte		N17   , An3 
	.byte	W18
	.byte		N02   , Fn3 
	.byte	W03
	.byte		        An3 
	.byte	W03
	.byte		N32
	.byte	W36
	.byte		        Bn3 
	.byte	W36
	.byte		N17   , An3 
	.byte	W18
	.byte		N02   , Cs3 , v076
	.byte	W03
	.byte		        En3 , v084
	.byte	W03
	.byte		N23   , An3 , v112
	.byte	W24
	.byte	W03
	.byte		N02   , An3 , v088
	.byte	W03
	.byte		        Cs4 , v092
	.byte	W03
	.byte		N56   , En4 , v112
	.byte	W56
	.byte	W01
	.byte		N02   , Bn2 
	.byte	W03
	.byte		        Ds3 
	.byte	W03
	.byte		N23   , Fs3 
	.byte	W24
	.byte	W03
	.byte		N02   , Fs3 , v088
	.byte	W03
	.byte		        Bn3 , v092
	.byte	W03
	.byte		N32   , Ds4 , v112
	.byte	W36
	.byte		N11   , Ds4 , v040
	.byte	W24
	.byte	W03
	.byte	PATT
	 .word	seq_000_5 + 0xE
	.byte	PATT
	 .word	seq_000_5 + 0x16
	.byte	PATT
	 .word	seq_000_5 + 0x27
	.byte	PATT
	 .word	seq_000_5 + 0x33
	.byte		N23   , An3 , v112
	.byte	W24
	.byte		N11   , An3 , v040
	.byte	W66
	.byte		N02   , Fn3 , v112
	.byte	W03
	.byte		        An3 
	.byte	W03
	.byte		N11
	.byte	W12
	.byte		        Fn3 
	.byte	W12
	.byte		        An3 
	.byte	W12
	.byte		        Bn3 
	.byte	W12
	.byte		N15   , Dn4 
	.byte	W16
	.byte		        Bn3 
	.byte	W16
	.byte		N08   , An3 
	.byte	W10
	.byte		N02   , En3 
	.byte	W03
	.byte		        An3 
	.byte	W03
	.byte		N23
	.byte	W24
	.byte		N11   , En3 
	.byte	W12
	.byte		N23   , Dn4 
	.byte	W24
	.byte		N32   , En4 
	.byte	W30
	.byte		N02   , Ds3 
	.byte	W03
	.byte		        Fs3 
	.byte	W03
	.byte		N32
	.byte	W36
	.byte		N11   , Ds3 
	.byte	W12
	.byte		N15   , Bn3 
	.byte	W16
	.byte		        Ds4 
	.byte	W16
	.byte		        An3 
	.byte	W16
	.byte		N32   , Fs3 
	.byte	W36
	.byte		N05   , En3 
	.byte	W06
	.byte		        Ds3 
	.byte	W06
	.byte		N32   , En3 
	.byte	W36
	.byte		N11   , En3 , v040
	.byte	W12
	.byte	W96
	.byte	W96
	.byte	W96
	.byte	W96
	.byte	W96
	.byte	W96
	.byte	W96
	.byte	W96
	.byte	W96
	.byte	W96
	.byte	W96
	.byte	W96
	.byte	PATT
	 .word	seq_000_5 + 0xE
	.byte	PATT
	 .word	seq_000_5 + 0x16
	.byte	PATT
	 .word	seq_000_5 + 0x27
	.byte	GOTO
	 .word	seq_000_5 + 0x33
	.byte	W02
	.byte	FINE

@*********************** Track 07 ***********************@

seq_000_6:
	.byte	KEYSH , seq_000_key+0
	.byte		VOICE , 48
	.byte		VOL   , 11*seq_000_mvl/mxv
	.byte		PAN   , c_v+38
	.byte		MOD   , 0
	.byte	W12
	.byte	W96
	.byte		PAN   , c_v-38
	.byte		N92   , An2 , v112
	.byte	W24
	.byte		VOL   , 11*seq_000_mvl/mxv
	.byte	W03
	.byte		        14*seq_000_mvl/mxv
	.byte	W03
	.byte		        16*seq_000_mvl/mxv
	.byte	W02
	.byte		        23*seq_000_mvl/mxv
	.byte	W04
	.byte		        26*seq_000_mvl/mxv
	.byte	W02
	.byte		        32*seq_000_mvl/mxv
	.byte	W04
	.byte		        42*seq_000_mvl/mxv
	.byte	W02
	.byte		        49*seq_000_mvl/mxv
	.byte	W04
	.byte		        57*seq_000_mvl/mxv
	.byte	W02
	.byte		        69*seq_000_mvl/mxv
	.byte	W01
	.byte		PAN   , c_v-34
	.byte	W03
	.byte		        c_v-33
	.byte		VOL   , 73*seq_000_mvl/mxv
	.byte	W02
	.byte		PAN   , c_v-28
	.byte		VOL   , 81*seq_000_mvl/mxv
	.byte	W04
	.byte		PAN   , c_v-25
	.byte		VOL   , 86*seq_000_mvl/mxv
	.byte	W02
	.byte		PAN   , c_v-21
	.byte		VOL   , 82*seq_000_mvl/mxv
	.byte	W04
	.byte		PAN   , c_v-20
	.byte	W02
	.byte		        c_v-16
	.byte	W04
	.byte		        c_v-12
	.byte		VOL   , 69*seq_000_mvl/mxv
	.byte	W02
	.byte		PAN   , c_v-5
	.byte	W01
	.byte		VOL   , 67*seq_000_mvl/mxv
	.byte	W03
	.byte		PAN   , c_v+4
	.byte		VOL   , 60*seq_000_mvl/mxv
	.byte	W02
	.byte		PAN   , c_v+25
	.byte	W04
	.byte		        c_v+36
	.byte	W12
	.byte		N23   , En2 , v112
	.byte	W24
	.byte		N11   , Gs2 
	.byte	W12
	.byte		N23   , An2 
	.byte	W24
	.byte		        En3 
	.byte	W24
	.byte		N32   , Gs2 
	.byte	W12
	.byte	PEND
	.byte	W24
	.byte		N11   , Fs2 , v112
	.byte	W12
	.byte		N23   , Gs2 
	.byte	W24
	.byte		        En2 
	.byte	W24
	.byte		N11   , Dn2 
	.byte	W12
	.byte	PEND
	.byte		N23   , Gn2 , v112
	.byte	W24
	.byte		N11   , Fs2 
	.byte	W12
	.byte		N23   , En2 
	.byte	W24
	.byte		N11
	.byte	W12
	.byte		        Fs3 
	.byte	W12
	.byte		        Cs3 
	.byte	W12
	.byte		N23   , En3 
	.byte	W24
	.byte		        Dn3 
	.byte	W24
	.byte		        Cs3 
	.byte	W24
	.byte		        Bn2 
	.byte	W24
	.byte		N32   , An2 
	.byte	W36
	.byte		        Bn2 
	.byte	W36
	.byte		N23   , Cn3 
	.byte	W24
	.byte		        Cs3 
	.byte	W24
	.byte		N11   , An2 
	.byte	W12
	.byte		        Cs3 
	.byte	W12
	.byte		N15   , Gs3 
	.byte	W16
	.byte		        An3 
	.byte	W16
	.byte		        Fs3 
	.byte	W16
	.byte		N23   , Bn2 
	.byte	W24
	.byte		N11   , Fs2 
	.byte	W12
	.byte		        Bn2 
	.byte	W12
	.byte		N15   , Gs3 
	.byte	W16
	.byte		        An3 
	.byte	W16
	.byte		        Fs3 
	.byte	W16
	.byte		N23   , Bn2 
	.byte	W24
	.byte		        Gs2 
	.byte	W24
	.byte		        En3 
	.byte	W24
	.byte		        Dn3 
	.byte	W24
	.byte	W96
	.byte	W96
	.byte	W96
	.byte	W96
	.byte	W96
	.byte	W96
	.byte	W96
	.byte	W48
	.byte		VOL   , 84*seq_000_mvl/mxv
	.byte	W03
	.byte		        89*seq_000_mvl/mxv
	.byte	W21
	.byte		PAN   , c_v-47
	.byte		N02   , An2 , v080
	.byte	W02
	.byte		PAN   , c_v-32
	.byte	W01
	.byte		        c_v-39
	.byte		N02   , Bn2 , v088
	.byte	W02
	.byte		PAN   , c_v-33
	.byte	W01
	.byte		N02   , Cn3 
	.byte	W02
	.byte		PAN   , c_v-23
	.byte	W01
	.byte		N02   , Dn3 
	.byte	W03
	.byte		PAN   , c_v-18
	.byte		N02   , En3 , v092
	.byte	W02
	.byte		PAN   , c_v-10
	.byte	W01
	.byte		N02   , Fn3 , v096
	.byte	W02
	.byte		PAN   , c_v-2
	.byte	W01
	.byte		N02   , Fs3 , v100
	.byte	W03
	.byte		        Gn3 
	.byte	W03
	.byte		PAN   , c_v-5
	.byte		N56   , An3 , v112
	.byte	W24
	.byte		VOL   , 86*seq_000_mvl/mxv
	.byte	W09
	.byte		        86*seq_000_mvl/mxv
	.byte	W02
	.byte		        83*seq_000_mvl/mxv
	.byte	W03
	.byte		        80*seq_000_mvl/mxv
	.byte	W03
	.byte		        76*seq_000_mvl/mxv
	.byte	W03
	.byte		        73*seq_000_mvl/mxv
	.byte	W03
	.byte		        71*seq_000_mvl/mxv
	.byte	W03
	.byte		        68*seq_000_mvl/mxv
	.byte	W03
	.byte		        65*seq_000_mvl/mxv
	.byte	W03
	.byte		        63*seq_000_mvl/mxv
	.byte	W04
	.byte		        92*seq_000_mvl/mxv
	.byte		N05   , Bn3 
	.byte	W06
	.byte		        Bn3 , v040
	.byte	W06
	.byte		        Gn3 , v112
	.byte	W06
	.byte		        Fn3 
	.byte	W06
	.byte		        Fn3 , v040
	.byte	W06
	.byte		N76   , Gn3 , v112
	.byte	W06
	.byte	W09
	.byte		VOL   , 83*seq_000_mvl/mxv
	.byte	W15
	.byte		        81*seq_000_mvl/mxv
	.byte	W24
	.byte		        79*seq_000_mvl/mxv
	.byte	W02
	.byte		        76*seq_000_mvl/mxv
	.byte	W03
	.byte		        73*seq_000_mvl/mxv
	.byte	W03
	.byte		        69*seq_000_mvl/mxv
	.byte	W04
	.byte		        67*seq_000_mvl/mxv
	.byte	W02
	.byte		        64*seq_000_mvl/mxv
	.byte	W03
	.byte		        61*seq_000_mvl/mxv
	.byte	W03
	.byte		        60*seq_000_mvl/mxv
	.byte	W04
	.byte		        90*seq_000_mvl/mxv
	.byte		N05   , Gn3 , v040
	.byte	W06
	.byte		N11   , Gn2 , v112
	.byte	W12
	.byte		N05   , Cn3 
	.byte	W06
	.byte		N52   , Fn3 
	.byte	W12
	.byte		VOL   , 88*seq_000_mvl/mxv
	.byte	W12
	.byte		        85*seq_000_mvl/mxv
	.byte	W09
	.byte		        84*seq_000_mvl/mxv
	.byte	W02
	.byte		        78*seq_000_mvl/mxv
	.byte	W03
	.byte		        76*seq_000_mvl/mxv
	.byte	W03
	.byte		        70*seq_000_mvl/mxv
	.byte	W03
	.byte		        66*seq_000_mvl/mxv
	.byte	W03
	.byte		        61*seq_000_mvl/mxv
	.byte	W03
	.byte		        57*seq_000_mvl/mxv
	.byte	W03
	.byte		        52*seq_000_mvl/mxv
	.byte	W03
	.byte		        49*seq_000_mvl/mxv
	.byte	W04
	.byte		        92*seq_000_mvl/mxv
	.byte		N05   , Gn3 
	.byte	W06
	.byte		        An3 
	.byte	W06
	.byte		        Gn3 
	.byte	W06
	.byte		        Fn3 
	.byte	W06
	.byte		        Fn3 , v040
	.byte	W06
	.byte		        Dn3 , v112
	.byte	W06
	.byte		        En3 
	.byte	W06
	.byte		N11   , Fn3 
	.byte	W12
	.byte		N05   , Fs3 
	.byte	W06
	.byte		N11   , Gn3 
	.byte	W12
	.byte		N32   , As3 
	.byte	W21
	.byte		VOL   , 91*seq_000_mvl/mxv
	.byte	W03
	.byte		        81*seq_000_mvl/mxv
	.byte	W02
	.byte		        70*seq_000_mvl/mxv
	.byte	W03
	.byte		        63*seq_000_mvl/mxv
	.byte	W03
	.byte		        60*seq_000_mvl/mxv
	.byte	W04
	.byte		        89*seq_000_mvl/mxv
	.byte	W06
	.byte		N11   , Gn3 
	.byte	W12
	.byte		N05   , Gs3 
	.byte	W06
	.byte		N56   , An3 
	.byte	W60
	.byte		N05   , Dn4 
	.byte	W06
	.byte		        En4 
	.byte	W06
	.byte		        Dn4 
	.byte	W06
	.byte		        Cn4 
	.byte	W06
	.byte		        Bn3 
	.byte	W06
	.byte		        Dn4 
	.byte	W06
	.byte		N68   , Cn4 
	.byte	W24
	.byte		VOL   , 85*seq_000_mvl/mxv
	.byte	W24
	.byte		        85*seq_000_mvl/mxv
	.byte	W02
	.byte		        83*seq_000_mvl/mxv
	.byte	W03
	.byte		        79*seq_000_mvl/mxv
	.byte	W03
	.byte		        76*seq_000_mvl/mxv
	.byte	W04
	.byte		        75*seq_000_mvl/mxv
	.byte	W02
	.byte		        72*seq_000_mvl/mxv
	.byte	W03
	.byte		        69*seq_000_mvl/mxv
	.byte	W03
	.byte		        65*seq_000_mvl/mxv
	.byte	W04
	.byte		        57*seq_000_mvl/mxv
	.byte		N05
	.byte	W06
	.byte		VOL   , 92*seq_000_mvl/mxv
	.byte		N05   , Bn3 
	.byte	W06
	.byte		        An3 
	.byte	W06
	.byte		        Bn3 
	.byte	W06
	.byte		N68   , Cn4 
	.byte	W24
	.byte		VOL   , 86*seq_000_mvl/mxv
	.byte	W09
	.byte		        86*seq_000_mvl/mxv
	.byte	W02
	.byte		        83*seq_000_mvl/mxv
	.byte	W06
	.byte		        79*seq_000_mvl/mxv
	.byte	W03
	.byte		        76*seq_000_mvl/mxv
	.byte	W03
	.byte		        75*seq_000_mvl/mxv
	.byte	W03
	.byte		        74*seq_000_mvl/mxv
	.byte	W03
	.byte		        72*seq_000_mvl/mxv
	.byte	W03
	.byte		        70*seq_000_mvl/mxv
	.byte	W03
	.byte		        68*seq_000_mvl/mxv
	.byte	W03
	.byte		        65*seq_000_mvl/mxv
	.byte	W03
	.byte		        63*seq_000_mvl/mxv
	.byte	W03
	.byte		        61*seq_000_mvl/mxv
	.byte	W04
	.byte		        92*seq_000_mvl/mxv
	.byte		N05
	.byte	W06
	.byte		        Bn3 
	.byte	W06
	.byte		        An3 
	.byte	W06
	.byte		        Bn3 
	.byte	W06
	.byte		N40   , Cn4 
	.byte	W42
	.byte		N02   , Gn3 
	.byte	W03
	.byte		        Gn3 , v040
	.byte	W03
	.byte		N28   , Gn3 , v112
	.byte	W30
	.byte		N05   , Gn3 , v040
	.byte	W06
	.byte		        Gn3 , v112
	.byte	W06
	.byte		        Bn3 
	.byte	W06
	.byte		N32   , Cn4 
	.byte	W36
	.byte		N05   , Bn3 
	.byte	W06
	.byte		        Cn4 
	.byte	W06
	.byte		N32   , Dn4 
	.byte	W36
	.byte		N05   , Bn3 
	.byte	W06
	.byte		        Gn3 
	.byte	W06
	.byte		        Bn3 
	.byte	W06
	.byte		        Bn3 , v040
	.byte	W06
	.byte		TIE   , An3 , v112
	.byte	W60
	.byte		VOL   , 86*seq_000_mvl/mxv
	.byte	W02
	.byte		        83*seq_000_mvl/mxv
	.byte	W03
	.byte		        75*seq_000_mvl/mxv
	.byte	W07
	.byte		        69*seq_000_mvl/mxv
	.byte	W05
	.byte		        65*seq_000_mvl/mxv
	.byte	W03
	.byte		        62*seq_000_mvl/mxv
	.byte	W04
	.byte	W02
	.byte		        57*seq_000_mvl/mxv
	.byte	W03
	.byte		        56*seq_000_mvl/mxv
	.byte	W03
	.byte		        54*seq_000_mvl/mxv
	.byte	W04
	.byte		        52*seq_000_mvl/mxv
	.byte	W02
	.byte		        48*seq_000_mvl/mxv
	.byte	W03
	.byte		        46*seq_000_mvl/mxv
	.byte	W03
	.byte		        41*seq_000_mvl/mxv
	.byte	W04
	.byte		        37*seq_000_mvl/mxv
	.byte	W02
	.byte		        36*seq_000_mvl/mxv
	.byte	W03
	.byte		        32*seq_000_mvl/mxv
	.byte	W03
	.byte		        30*seq_000_mvl/mxv
	.byte	W06
	.byte		        26*seq_000_mvl/mxv
	.byte	W06
	.byte		        23*seq_000_mvl/mxv
	.byte	W06
	.byte		        21*seq_000_mvl/mxv
	.byte	W06
	.byte		        18*seq_000_mvl/mxv
	.byte	W06
	.byte		        14*seq_000_mvl/mxv
	.byte	W24
	.byte		        18*seq_000_mvl/mxv
	.byte	W01
	.byte		        10*seq_000_mvl/mxv
	.byte	W08
	.byte		EOT
	.byte	W01
	.byte		VOL   , 11*seq_000_mvl/mxv
	.byte	W96
	.byte		PAN   , c_v-38
	.byte		N92   , An2 
	.byte	W24
	.byte		VOL   , 11*seq_000_mvl/mxv
	.byte	W03
	.byte		        14*seq_000_mvl/mxv
	.byte	W03
	.byte		        16*seq_000_mvl/mxv
	.byte	W02
	.byte		        23*seq_000_mvl/mxv
	.byte	W04
	.byte		        26*seq_000_mvl/mxv
	.byte	W02
	.byte		        32*seq_000_mvl/mxv
	.byte	W04
	.byte		        42*seq_000_mvl/mxv
	.byte	W02
	.byte		        49*seq_000_mvl/mxv
	.byte	W04
	.byte		        57*seq_000_mvl/mxv
	.byte	W02
	.byte		        69*seq_000_mvl/mxv
	.byte	W01
	.byte		PAN   , c_v-34
	.byte	W03
	.byte		        c_v-33
	.byte		VOL   , 73*seq_000_mvl/mxv
	.byte	W02
	.byte		PAN   , c_v-28
	.byte		VOL   , 81*seq_000_mvl/mxv
	.byte	W04
	.byte		PAN   , c_v-25
	.byte		VOL   , 86*seq_000_mvl/mxv
	.byte	W02
	.byte		PAN   , c_v-21
	.byte		VOL   , 82*seq_000_mvl/mxv
	.byte	W04
	.byte		PAN   , c_v-20
	.byte	W02
	.byte		        c_v-16
	.byte	W04
	.byte		VOL   , 66*seq_000_mvl/mxv
	.byte		PAN   , c_v-12
	.byte	W02
	.byte		        c_v-5
	.byte	W01
	.byte		VOL   , 57*seq_000_mvl/mxv
	.byte	W03
	.byte		        52*seq_000_mvl/mxv
	.byte		PAN   , c_v+4
	.byte	W02
	.byte		        c_v+25
	.byte	W04
	.byte		        c_v+34
	.byte	W12
	.byte	PATT
	 .word	seq_000_6 + 0x56
	.byte	PATT
	 .word	seq_000_6 + 0x66
	.byte	GOTO
	 .word	seq_000_6 + 0x74
	.byte	W11
	.byte	FINE

@*********************** Track 08 ***********************@

seq_000_7:
	.byte	KEYSH , seq_000_key+0
	.byte		VOICE , 46
	.byte		PAN   , c_v+32
	.byte		VOL   , 62*seq_000_mvl/mxv
	.byte		MOD   , 0
	.byte		BEND  , c_v+0
	.byte	W12
	.byte		VOL   , 55*seq_000_mvl/mxv
	.byte		N03   , An2 , v112
	.byte	W04
	.byte		        En3 
	.byte	W04
	.byte		        An3 
	.byte	W04
	.byte		PAN   , c_v-32
	.byte		N03   , Cs4 
	.byte	W04
	.byte		        Bn4 
	.byte	W04
	.byte		        Cs4 
	.byte	W04
	.byte		        An2 
	.byte	W04
	.byte		        En3 
	.byte	W04
	.byte		        An3 
	.byte	W04
	.byte		PAN   , c_v+32
	.byte		N03   , Cs4 
	.byte	W04
	.byte		        Bn4 
	.byte	W04
	.byte		        Cs4 
	.byte	W04
	.byte		        An2 
	.byte	W04
	.byte		        En3 
	.byte	W04
	.byte		        An3 
	.byte	W04
	.byte		PAN   , c_v-32
	.byte		N03   , Cs4 
	.byte	W04
	.byte		        Bn4 
	.byte	W04
	.byte		        Cs4 
	.byte	W04
	.byte		        An2 
	.byte	W04
	.byte		        En3 
	.byte	W04
	.byte		        An3 
	.byte	W04
	.byte		PAN   , c_v+32
	.byte		N03   , Cs4 
	.byte	W04
	.byte		        Bn4 
	.byte	W04
	.byte		        Cs4 
	.byte	W04
	.byte	PEND
	.byte		N03   , An2 , v112
	.byte	W04
	.byte		        En3 
	.byte	W04
	.byte		        An3 
	.byte	W04
	.byte		PAN   , c_v-32
	.byte		N03   , Cs4 
	.byte	W04
	.byte		        Bn4 
	.byte	W04
	.byte		        Cs4 
	.byte	W04
	.byte		        An2 
	.byte	W04
	.byte		        En3 
	.byte	W04
	.byte		        An3 
	.byte	W04
	.byte		PAN   , c_v+32
	.byte		N03   , Cs4 
	.byte	W04
	.byte		        Bn4 
	.byte	W04
	.byte		        Cs4 
	.byte	W04
	.byte		        An2 
	.byte	W04
	.byte		        An3 
	.byte	W04
	.byte		        En4 
	.byte	W04
	.byte		PAN   , c_v-32
	.byte		N03   , Bn4 
	.byte	W04
	.byte		        Cs5 
	.byte	W04
	.byte		        An4 
	.byte	W04
	.byte		        Cs4 
	.byte	W04
	.byte		        En4 
	.byte	W04
	.byte		        Bn3 
	.byte	W04
	.byte		PAN   , c_v+32
	.byte		N03   , An3 
	.byte	W04
	.byte		        Cs4 
	.byte	W04
	.byte		        En3 
	.byte	W04
	.byte	PEND
	.byte	W96
	.byte	W96
	.byte	W96
	.byte	W96
	.byte	W96
	.byte	W96
	.byte	W96
	.byte	W48
	.byte		VOICE , 5
	.byte	W24
	.byte		PAN   , c_v+43
	.byte		VOL   , 61*seq_000_mvl/mxv
	.byte	W12
	.byte		N02   , Bn4 , v108
	.byte	W03
	.byte		        Gs4 
	.byte	W03
	.byte		        En4 
	.byte	W03
	.byte		        Bn3 
	.byte	W03
	.byte		N23   , An3 , v112
	.byte	W24
	.byte		N11   , Gs3 
	.byte	W12
	.byte		N23   , An3 
	.byte	W24
	.byte		N17   , Bn3 
	.byte	W18
	.byte		N02   , En3 
	.byte	W03
	.byte		        Gs3 
	.byte	W03
	.byte		N11   , Cs4 
	.byte	W12
	.byte		N23   , Gs3 
	.byte	W24
	.byte		N11   , Fs3 
	.byte	W12
	.byte		N23   , Gs3 
	.byte	W24
	.byte		N24   , En3 
	.byte	W30
	.byte		N02   , Cs3 
	.byte	W03
	.byte		        Gn3 
	.byte	W03
	.byte		N23   , Bn3 
	.byte	W24
	.byte		N11
	.byte	W12
	.byte		        As3 
	.byte	W12
	.byte		        Cs4 
	.byte	W12
	.byte		        Bn3 
	.byte	W12
	.byte		        Dn4 
	.byte	W12
	.byte		        An3 
	.byte	W12
	.byte		N23
	.byte	W24
	.byte		        Fs3 
	.byte	W24
	.byte		N15   , Dn3 
	.byte	W16
	.byte		        An3 
	.byte	W16
	.byte		        Fn3 
	.byte	W16
	.byte		N11   , Dn3 
	.byte	W12
	.byte		        An2 
	.byte	W12
	.byte		        Dn3 
	.byte	W12
	.byte		        En3 
	.byte	W12
	.byte		N15   , Fn3 
	.byte	W16
	.byte		        En3 
	.byte	W16
	.byte		        Dn3 
	.byte	W16
	.byte		N23   , En3 
	.byte	W24
	.byte		N11   , Cs3 
	.byte	W12
	.byte		N23   , Gs3 
	.byte	W24
	.byte		N32   , An3 
	.byte	W36
	.byte		PAN   , c_v+45
	.byte		N32   , Ds3 
	.byte	W36
	.byte		N11   , Ds3 , v040
	.byte	W12
	.byte		N15   , Gs3 , v112
	.byte	W16
	.byte		        An3 
	.byte	W16
	.byte		        Fs3 
	.byte	W16
	.byte	W84
	.byte		PAN   , c_v+0
	.byte	W12
	.byte	W96
	.byte	W96
	.byte	W96
	.byte	W96
	.byte	W96
	.byte	W96
	.byte	W96
	.byte	W96
	.byte	W96
	.byte		VOICE , 46
	.byte		PAN   , c_v+32
	.byte		VOL   , 55*seq_000_mvl/mxv
	.byte		N03   , An2 
	.byte	W04
	.byte		        En3 
	.byte	W04
	.byte		        An3 
	.byte	W04
	.byte		PAN   , c_v-32
	.byte		N03   , Cs4 
	.byte	W04
	.byte		        Bn4 
	.byte	W04
	.byte		        Cs4 
	.byte	W04
	.byte		        An2 
	.byte	W04
	.byte		        En3 
	.byte	W04
	.byte		        An3 
	.byte	W04
	.byte		PAN   , c_v+32
	.byte		N03   , Cs4 
	.byte	W04
	.byte		        Bn4 
	.byte	W04
	.byte		        Cs4 
	.byte	W04
	.byte		        An2 
	.byte	W04
	.byte		        En3 
	.byte	W04
	.byte		        An3 
	.byte	W04
	.byte		PAN   , c_v-32
	.byte		N03   , Cs4 
	.byte	W04
	.byte		        Bn4 
	.byte	W04
	.byte		        Cs4 
	.byte	W04
	.byte		        An2 
	.byte	W04
	.byte		        En3 
	.byte	W04
	.byte		        An3 
	.byte	W04
	.byte		PAN   , c_v+32
	.byte		N03   , Cs4 
	.byte	W04
	.byte		        Bn4 
	.byte	W04
	.byte		        Cs4 
	.byte	W04
	.byte	PATT
	 .word	seq_000_7 + 0x4E
	.byte	PATT
	 .word	seq_000_7 + 0xD
	.byte	PATT
	 .word	seq_000_7 + 0x4E
	.byte	W96
	.byte	W96
	.byte	GOTO
	 .word	seq_000_7 + 0x8F
	.byte	FINE

@*********************** Track 09 ***********************@

seq_000_8:
	.byte	KEYSH , seq_000_key+0
	.byte		VOICE , 46
	.byte		PAN   , c_v+0
	.byte		VOL   , 69*seq_000_mvl/mxv
	.byte		MOD   , 0
	.byte		BEND  , c_v+0
	.byte	W12
	.byte		VOL   , 34*seq_000_mvl/mxv
	.byte		BEND  , c_v+1
	.byte		N03   , An3 , v112
	.byte	W04
	.byte		        En4 
	.byte	W04
	.byte		        An4 
	.byte	W04
	.byte		        Cs5 
	.byte	W04
	.byte		        Bn5 
	.byte	W04
	.byte		        Cs5 
	.byte	W04
	.byte		PAN   , c_v-32
	.byte		N03   , An3 
	.byte	W04
	.byte		        En4 
	.byte	W04
	.byte		        An4 
	.byte	W04
	.byte		        Cs5 
	.byte	W04
	.byte		        Bn5 
	.byte	W04
	.byte		        Cs5 
	.byte	W04
	.byte		PAN   , c_v+32
	.byte		N03   , An3 
	.byte	W04
	.byte		        En4 
	.byte	W04
	.byte		        An4 
	.byte	W04
	.byte		        Cs5 
	.byte	W04
	.byte		        Bn5 
	.byte	W04
	.byte		        Cs5 
	.byte	W04
	.byte		PAN   , c_v-32
	.byte		N03   , An3 
	.byte	W04
	.byte		        En4 
	.byte	W04
	.byte		        An4 
	.byte	W04
	.byte		        Cs5 
	.byte	W04
	.byte		        Bn5 
	.byte	W04
	.byte		        Cs5 
	.byte	W04
	.byte		PAN   , c_v+32
	.byte		N03   , An3 , v112
	.byte	W04
	.byte		        En4 
	.byte	W04
	.byte		        An4 
	.byte	W04
	.byte		        Cs5 
	.byte	W04
	.byte		        Bn5 
	.byte	W04
	.byte		        Cs5 
	.byte	W04
	.byte		PAN   , c_v-32
	.byte		N03   , An3 
	.byte	W04
	.byte		        En4 
	.byte	W04
	.byte		        An4 
	.byte	W04
	.byte		        Cs5 
	.byte	W04
	.byte		        Bn5 
	.byte	W04
	.byte		        Cs5 
	.byte	W04
	.byte		PAN   , c_v+32
	.byte		N03   , An3 
	.byte	W04
	.byte		        An4 
	.byte	W04
	.byte		        En5 
	.byte	W04
	.byte		        Bn5 
	.byte	W04
	.byte		        Cs6 
	.byte	W04
	.byte		        An5 
	.byte	W04
	.byte		PAN   , c_v-32
	.byte		N03   , Cs5 
	.byte	W04
	.byte		        En5 
	.byte	W04
	.byte		        Bn4 
	.byte	W04
	.byte		        An4 
	.byte	W04
	.byte		        Cs5 
	.byte	W04
	.byte		        En4 
	.byte	W04
	.byte	PEND
	.byte		PAN   , c_v+4
	.byte		BEND  , c_v+0
	.byte	W96
	.byte	W96
	.byte	W96
	.byte	W96
	.byte	W96
	.byte	W96
	.byte	W96
	.byte		VOL   , 92*seq_000_mvl/mxv
	.byte	W48
	.byte		VOICE , 33
	.byte	W36
	.byte		N06   , En1 , v127
	.byte	W06
	.byte		N05   , Cs1 
	.byte	W06
	.byte		N36   , An0 
	.byte	W36
	.byte		N05
	.byte	W06
	.byte		        An0 , v040
	.byte	W06
	.byte		N44   , An0 , v127
	.byte	W48
	.byte		N32   , Cs1 
	.byte	W36
	.byte		N05
	.byte	W06
	.byte		        Cs1 , v040
	.byte	W06
	.byte		N44   , Cs1 , v127
	.byte	W48
	.byte		N32   , Gn0 
	.byte	W36
	.byte		N11
	.byte	W12
	.byte		        Gn0 , v040
	.byte	W12
	.byte		        Gn0 , v127
	.byte	W12
	.byte		        Dn1 
	.byte	W12
	.byte		        Bn0 
	.byte	W12
	.byte		N32   , Fs0 
	.byte	W36
	.byte		N05
	.byte	W06
	.byte		        Fs0 , v040
	.byte	W06
	.byte		N15   , Dn1 , v127
	.byte	W16
	.byte		        An0 
	.byte	W16
	.byte		        Dn1 
	.byte	W16
	.byte		N32   , Fn0 
	.byte	W36
	.byte		N11   , An0 
	.byte	W12
	.byte		N15   , Dn1 
	.byte	W16
	.byte		        En1 
	.byte	W16
	.byte		        Fn1 
	.byte	W16
	.byte		N32   , En1 
	.byte	W36
	.byte		N23   , An0 
	.byte	W24
	.byte		N23
	.byte	W24
	.byte		N11   , As0 
	.byte	W12
	.byte		N32   , Bn0 
	.byte	W36
	.byte		N11
	.byte	W12
	.byte		N15   , Fs1 
	.byte	W16
	.byte		N13   , Ds1 
	.byte	W16
	.byte		N15   , An1 
	.byte	W16
	.byte		N32   , En1 
	.byte	W36
	.byte		N05
	.byte	W06
	.byte		        En1 , v040
	.byte	W06
	.byte		N23   , En1 , v127
	.byte	W24
	.byte		        Dn1 
	.byte	W24
	.byte	W96
	.byte	W96
	.byte	W96
	.byte	W96
	.byte	W96
	.byte	W96
	.byte	W96
	.byte	W96
	.byte	W96
	.byte		VOICE , 46
	.byte		VOL   , 36*seq_000_mvl/mxv
	.byte		BEND  , c_v+1
	.byte		N03   , An3 , v112
	.byte	W04
	.byte		        En4 
	.byte	W04
	.byte		        An4 
	.byte	W04
	.byte		        Cs5 
	.byte	W04
	.byte		        Bn5 
	.byte	W04
	.byte		        Cs5 
	.byte	W04
	.byte		PAN   , c_v-32
	.byte		N03   , An3 
	.byte	W04
	.byte		        En4 
	.byte	W04
	.byte		        An4 
	.byte	W04
	.byte		        Cs5 
	.byte	W04
	.byte		        Bn5 
	.byte	W04
	.byte		        Cs5 
	.byte	W04
	.byte		PAN   , c_v+32
	.byte		N03   , An3 
	.byte	W04
	.byte		        En4 
	.byte	W04
	.byte		        An4 
	.byte	W04
	.byte		        Cs5 
	.byte	W04
	.byte		        Bn5 
	.byte	W04
	.byte		        Cs5 
	.byte	W04
	.byte		PAN   , c_v-32
	.byte		N03   , An3 
	.byte	W04
	.byte		        En4 
	.byte	W04
	.byte		        An4 
	.byte	W04
	.byte		        Cs5 
	.byte	W04
	.byte		        Bn5 
	.byte	W04
	.byte		        Cs5 
	.byte	W04
	.byte	PATT
	 .word	seq_000_8 + 0x4C
	.byte		VOL   , 36*seq_000_mvl/mxv
	.byte		BEND  , c_v+0
	.byte		N03   , An3 , v112
	.byte	W04
	.byte		        En4 
	.byte	W04
	.byte		        An4 
	.byte	W04
	.byte		        Cs5 
	.byte	W04
	.byte		        Bn5 
	.byte	W04
	.byte		        Cs5 
	.byte	W04
	.byte		PAN   , c_v-32
	.byte		N03   , An3 
	.byte	W04
	.byte		        En4 
	.byte	W04
	.byte		        An4 
	.byte	W04
	.byte		        Cs5 
	.byte	W04
	.byte		        Bn5 
	.byte	W04
	.byte		        Cs5 
	.byte	W04
	.byte		PAN   , c_v+32
	.byte		N03   , An3 
	.byte	W04
	.byte		        En4 
	.byte	W04
	.byte		        An4 
	.byte	W04
	.byte		        Cs5 
	.byte	W04
	.byte		        Bn5 
	.byte	W04
	.byte		        Cs5 
	.byte	W04
	.byte		PAN   , c_v-32
	.byte		N03   , An3 
	.byte	W04
	.byte		        En4 
	.byte	W04
	.byte		        An4 
	.byte	W04
	.byte		        Cs5 
	.byte	W04
	.byte		        Bn5 
	.byte	W04
	.byte		        Cs5 
	.byte	W04
	.byte	PATT
	 .word	seq_000_8 + 0x4C
	.byte		PAN   , c_v+4
	.byte		BEND  , c_v+0
	.byte	W96
	.byte	W96
	.byte	GOTO
	 .word	seq_000_8 + 0x90
	.byte	FINE

@*********************** Track 10 ***********************@

seq_000_9:
	.byte	KEYSH , seq_000_key+0
	.byte		VOICE , 1
	.byte		PAN   , c_v+0
	.byte		VOL   , 81*seq_000_mvl/mxv
	.byte	W12
	.byte	W96
	.byte	W96
	.byte	W96
	.byte	W96
	.byte	W96
	.byte	W96
	.byte	W96
	.byte	W96
	.byte	W96
	.byte	W48
	.byte		N05   , Fs1 , v080
	.byte	W12
	.byte		        Fs1 , v048
	.byte	W12
	.byte		N23   , As1 , v064
	.byte	W24
	.byte		N23   , Cn1 , v112
	.byte		N23   , Fs1 , v064
	.byte	W24
	.byte		N23
	.byte	W12
	.byte		N11   , Cn1 , v112
	.byte	W12
	.byte		N11
	.byte		N23   , Fs1 , v064
	.byte	W24
	.byte		        Cs1 , v084
	.byte		N23   , Fs1 , v064
	.byte	W24
	.byte	PEND
	.byte		        Cn1 , v112
	.byte		N23   , Fs1 , v064
	.byte	W24
	.byte		N23
	.byte	W12
	.byte		N11   , Cn1 , v112
	.byte	W12
	.byte		N11
	.byte		N11   , Fs1 , v064
	.byte	W12
	.byte		        Fs1 , v032
	.byte	W12
	.byte		N23   , Cs1 , v084
	.byte		N23   , As1 , v064
	.byte	W24
	.byte		N23   , Cn1 , v112
	.byte		N23   , Fs1 , v064
	.byte	W24
	.byte		N23
	.byte	W12
	.byte		N11   , Cn1 , v112
	.byte	W12
	.byte		N23   , Fs1 , v064
	.byte	W12
	.byte		N11   , Cn1 , v112
	.byte	W12
	.byte		N23   , Cs1 , v084
	.byte		N23   , Fs1 , v064
	.byte	W24
	.byte	PEND
	.byte		        Cn1 , v112
	.byte		N23   , Fs1 , v064
	.byte	W24
	.byte		N23
	.byte	W12
	.byte		N11   , Cn1 , v112
	.byte	W12
	.byte		N15   , Dn1 
	.byte		N30   , As1 , v088
	.byte	W16
	.byte		N15   , Cn1 , v112
	.byte	W16
	.byte		N15
	.byte		N15   , As1 , v068
	.byte	W16
	.byte		N23   , Cn1 , v112
	.byte		N23   , Fs1 , v064
	.byte	W24
	.byte		N23
	.byte	W12
	.byte		N11   , Cn1 , v112
	.byte	W12
	.byte		N15
	.byte		N15   , As1 , v064
	.byte	W16
	.byte		        Cn1 , v112
	.byte		N06   , Fs1 , v056
	.byte	W16
	.byte		N15   , Fn1 , v112
	.byte		N15   , As1 , v068
	.byte	W16
	.byte	PATT
	 .word	seq_000_9 + 0x52
	.byte	PATT
	 .word	seq_000_9 + 0x52
	.byte	PATT
	 .word	seq_000_9 + 0x1E
	.byte		N05   , Cn1 , v112
	.byte		N05   , As1 , v080
	.byte	W06
	.byte		        Cn1 , v112
	.byte	W06
	.byte		        Fs1 , v048
	.byte	W12
	.byte		        Dn1 , v112
	.byte		N05   , Fs1 , v048
	.byte	W12
	.byte		        Cn1 , v112
	.byte		N05   , Fs1 , v048
	.byte	W06
	.byte		        Cn1 , v112
	.byte	W06
	.byte		        As1 , v064
	.byte	W12
	.byte		        Cn1 , v112
	.byte		N11   , As1 , v052
	.byte	W12
	.byte		N05   , Cn1 , v112
	.byte		N05   , Fs1 , v048
	.byte	W06
	.byte		        Dn1 , v112
	.byte	W06
	.byte		        Fs1 , v044
	.byte	W06
	.byte		        Dn1 , v112
	.byte	W06
	.byte		        Cn1 
	.byte		N05   , As1 , v080
	.byte	W06
	.byte		        Cn1 , v112
	.byte	W06
	.byte		        Fs1 , v048
	.byte	W12
	.byte		        Dn1 , v112
	.byte		N05   , Fs1 , v048
	.byte	W12
	.byte		        Cn1 , v112
	.byte		N05   , Fs1 , v048
	.byte	W06
	.byte		        Dn1 , v112
	.byte	W06
	.byte		N05
	.byte		N05   , Fs1 , v080
	.byte	W06
	.byte		        Cn1 , v112
	.byte	W06
	.byte		N05
	.byte		N11   , As1 , v076
	.byte	W12
	.byte		N05   , Dn1 , v112
	.byte	W06
	.byte		N05
	.byte	W06
	.byte		        Cn1 
	.byte		N11   , As1 , v076
	.byte	W12
	.byte		N05   , Cn1 , v112
	.byte		N05   , As1 , v080
	.byte	W06
	.byte		        Cn1 , v112
	.byte	W06
	.byte		        Fs1 , v048
	.byte	W06
	.byte		        Cn1 , v112
	.byte	W06
	.byte		        Dn1 
	.byte		N05   , Fs1 , v048
	.byte	W12
	.byte		        Cn1 , v112
	.byte		N05   , Fs1 , v048
	.byte	W06
	.byte		        Cn1 , v112
	.byte	W06
	.byte		        Fs1 , v080
	.byte	W12
	.byte		        Cn1 , v112
	.byte		N05   , As1 , v072
	.byte	W12
	.byte		        Dn1 , v112
	.byte		N05   , Fs1 , v048
	.byte	W12
	.byte		        As1 , v072
	.byte	W12
	.byte		        Cn1 , v112
	.byte		N05   , Fs1 , v080
	.byte	W06
	.byte		        Cn1 , v112
	.byte	W06
	.byte		        Fs1 , v048
	.byte	W06
	.byte		        Cn1 , v112
	.byte	W06
	.byte		        Dn1 
	.byte		N05   , Fs1 , v048
	.byte	W12
	.byte		        Cn1 , v112
	.byte		N05   , Fs1 , v048
	.byte	W06
	.byte		        Cn1 , v112
	.byte	W06
	.byte		        Fs1 , v080
	.byte	W06
	.byte		        Cn1 , v112
	.byte	W06
	.byte		        Fs1 , v052
	.byte	W06
	.byte		        Cn1 , v112
	.byte	W06
	.byte		        Dn1 
	.byte		N05   , Fs1 , v048
	.byte	W12
	.byte		        Cn1 , v112
	.byte		N05   , Fs1 , v044
	.byte	W12
	.byte		        Cn1 , v112
	.byte		N05   , Fs1 , v080
	.byte	W06
	.byte		        Cn1 , v112
	.byte	W06
	.byte		        Fs1 , v048
	.byte	W06
	.byte		        Dn1 , v112
	.byte	W06
	.byte		        Fs1 , v048
	.byte	W12
	.byte		        Cn1 , v112
	.byte		N05   , Fs1 , v048
	.byte	W06
	.byte		        Cn1 , v112
	.byte	W06
	.byte		N05
	.byte		N05   , As1 , v080
	.byte	W12
	.byte		        Cn1 , v112
	.byte		N05   , Fs1 , v052
	.byte	W12
	.byte		        Cn1 , v112
	.byte		N05   , Fs1 , v048
	.byte	W06
	.byte		        Dn1 , v112
	.byte	W06
	.byte		        Cn1 
	.byte		N05   , Fs1 , v044
	.byte	W12
	.byte		        Cn1 , v112
	.byte		N05   , Fs1 , v080
	.byte	W06
	.byte		        Cn1 , v112
	.byte	W06
	.byte		        Fs1 , v048
	.byte	W06
	.byte		        Dn1 , v112
	.byte	W06
	.byte		        Fs1 , v048
	.byte	W12
	.byte		        Cn1 , v112
	.byte		N05   , Fs1 , v048
	.byte	W06
	.byte		        Cn1 , v112
	.byte	W06
	.byte		N08   , As1 , v080
	.byte	W12
	.byte		N05   , Cn1 , v112
	.byte		N05   , Fs1 , v052
	.byte	W12
	.byte		        Dn1 , v112
	.byte		N08   , As1 , v080
	.byte	W06
	.byte		N05   , Cn1 , v112
	.byte	W06
	.byte		N05
	.byte		N05   , Fs1 , v044
	.byte	W12
	.byte		N05   , Cn1 , v112
	.byte		N05   , Fs1 , v080
	.byte	W06
	.byte		        Cn1 , v112
	.byte	W06
	.byte		N08   , As1 , v060
	.byte	W06
	.byte		N05   , Dn1 , v112
	.byte	W06
	.byte		        Fs1 , v048
	.byte	W12
	.byte		        Cn1 , v112
	.byte		N05   , As1 , v060
	.byte	W06
	.byte		        Cn1 , v112
	.byte	W06
	.byte		        Fs1 , v080
	.byte	W12
	.byte		        Cn1 , v112
	.byte		N05   , As1 , v060
	.byte	W12
	.byte		        Dn1 , v112
	.byte		N05   , Fs1 , v048
	.byte	W12
	.byte		        As1 , v060
	.byte	W12
	.byte	PEND
	.byte		        Cn1 , v112
	.byte		N05   , As1 , v076
	.byte	W06
	.byte		        Cn1 , v112
	.byte		N05   , Fs1 , v048
	.byte	W06
	.byte		N08   , As1 , v060
	.byte	W06
	.byte		N05   , Dn1 , v112
	.byte	W06
	.byte		        Fs1 , v048
	.byte	W12
	.byte		        Cn1 , v112
	.byte		N05   , Fs1 , v048
	.byte	W06
	.byte		        Cn1 , v112
	.byte	W06
	.byte		N05
	.byte		N05   , Fs1 , v080
	.byte	W12
	.byte		        Cn1 , v112
	.byte		N05   , Fs1 , v052
	.byte	W12
	.byte		        Dn1 , v112
	.byte		N05   , Fs1 , v048
	.byte	W06
	.byte		        Dn1 , v112
	.byte	W06
	.byte		        Cn1 
	.byte		N11   , As1 , v080
	.byte	W12
	.byte	PATT
	 .word	seq_000_9 + 0x1EC
	.byte		N05   , Cn1 , v112
	.byte		N05   , As1 , v076
	.byte	W06
	.byte		        Cn1 , v112
	.byte		N05   , Fs1 , v048
	.byte	W06
	.byte		N08   , As1 , v060
	.byte	W06
	.byte		N05   , Dn1 , v112
	.byte	W06
	.byte		        Fs1 , v048
	.byte	W12
	.byte		        Cn1 , v112
	.byte		N05   , Fs1 , v048
	.byte	W06
	.byte		        Cn1 , v112
	.byte	W06
	.byte		        Fs1 , v080
	.byte	W12
	.byte		        Cn1 , v112
	.byte		N05   , Fs1 , v052
	.byte	W12
	.byte		        Dn1 , v112
	.byte		N05   , Fs1 , v048
	.byte	W12
	.byte		        Fs1 , v044
	.byte	W12
	.byte		        Cn1 , v112
	.byte		N05   , As1 , v076
	.byte	W06
	.byte		        Cn1 , v112
	.byte		N05   , Fs1 , v048
	.byte	W06
	.byte		N08   , As1 , v060
	.byte	W06
	.byte		N05   , Dn1 , v112
	.byte	W06
	.byte		        Fs1 , v048
	.byte	W12
	.byte		        Cn1 , v112
	.byte		N05   , Fs1 , v048
	.byte	W06
	.byte		        Cn1 , v112
	.byte	W06
	.byte		        Fs1 , v080
	.byte	W12
	.byte		        Cn1 , v112
	.byte		N05   , Fs1 , v052
	.byte	W12
	.byte		        Dn1 , v112
	.byte		N05   , Fs1 , v048
	.byte	W06
	.byte		        Cn1 , v112
	.byte	W06
	.byte		        Fs1 , v044
	.byte	W06
	.byte		        Dn1 , v112
	.byte	W06
	.byte		        Cn1 
	.byte		N48   , An2 , v080
	.byte	W96
	.byte	W96
	.byte	W96
	.byte	W96
	.byte	GOTO
	 .word	seq_000_9 + 0xD
	.byte	FINE

@******************************************************@

	.align	2

seq_000:
	.byte	10	@ NumTrks
	.byte	0	@ NumBlks
	.byte	seq_000_pri	@ Priority
	.byte	seq_000_rev	@ Reverb

	.word	seq_000_grp

	.word	seq_000_0
	.word	seq_000_1
	.word	seq_000_2
	.word	seq_000_3
	.word	seq_000_4
	.word	seq_000_5
	.word	seq_000_6
	.word	seq_000_7
	.word	seq_000_8
	.word	seq_000_9

	.end
